<svg xmlns="http://www.w3.org/2000/svg" x="0px" y="0px" width="1837.5px" height="434px" viewBox="0 0 1837.5 434">

  <path fill="#FFFFFF" d="M365.518,365.573l31.832-31.82l-119.6-119.599L397.365,94.538l-31.819-31.82
  	C325.102,22.275,271.328,0.001,214.132,0C156.935,0,103.161,22.273,62.717,62.717C22.272,103.162-0.001,156.935,0,214.132
  	c0,57.197,22.273,110.97,62.717,151.414c40.44,40.439,94.207,62.713,151.396,62.718l0.019,5l0,0v-5
  	C271.312,428.266,325.075,406.001,365.518,365.573z"/>
  <path fill="#FF504D" d="M333.746,94.538c-0.007-0.007-0.014-0.015-0.021-0.022c-66.051-66.05-173.139-66.051-239.188,0
  	l119.615,119.616L333.746,94.538z"/>
  <path fill="#0E2F3A" d="M94.549,94.527c-0.007,0.007-0.016,0.014-0.022,0.021c-66.05,66.05-66.051,173.14-0.001,239.188
  	L214.143,214.12L94.549,94.527z"/>
  <path fill="#2BAAE1" d="M94.548,333.736c0.008,0.008,0.014,0.015,0.021,0.021c66.051,66.052,173.139,66.051,239.188,0.001
  	L214.143,214.143L94.548,333.736z"/>
  
  <g>
  	<path fill="#FFFFFF" d="M597.048,235.616c3.452,0,6.372,1.327,9.292,3.451c2.655,2.39,3.982,5.575,3.982,9.292
  		s-2.124,7.169-6.105,10.62c-13.541,12.478-29.204,18.85-47.523,18.85c-18.318,0-33.982-6.638-47.521-19.646
  		c-13.275-13.009-19.912-28.938-19.912-47.522c0-18.584,6.637-34.514,19.912-47.788c13.273-13.274,29.203-19.912,47.787-19.912
  		c14.337,0,27.08,3.982,38.496,11.947c9.026,6.106,13.805,12.478,13.805,19.115c0,3.186-1.326,5.841-3.717,7.965
  		c-2.389,1.858-5.309,2.92-8.76,2.92c-3.452,0-6.373-1.328-9.027-4.248c-8.762-8.496-18.85-13.009-30.531-13.009
  		s-21.77,4.513-29.734,13.009c-8.23,8.496-12.479,18.584-12.479,30.266c0,11.682,4.248,21.771,12.479,30
  		c8.23,8.496,18.318,12.744,29.734,12.744c11.682,0,21.77-4.514,30.797-13.274C590.676,237.209,593.597,235.616,597.048,235.616z"/>
  	<path fill="#FFFFFF" d="M769.079,210.661c0,18.583-6.638,34.513-20.177,47.522c-13.54,13.009-29.469,19.646-48.054,19.646
  		c-18.584,0-34.513-6.638-48.054-19.646c-13.273-13.009-19.911-28.938-19.911-47.522c0-18.584,6.638-34.514,19.911-47.788
  		c13.275-13.274,29.204-19.912,48.054-19.912c18.585,0,34.514,6.637,48.054,19.912C762.441,176.147,769.079,192.076,769.079,210.661
  		z M743.062,210.395c0-11.682-4.248-21.77-12.478-30c-8.23-8.23-18.054-12.478-29.735-12.744c-11.681,0-21.77,4.513-29.734,13.009
  		c-8.229,8.496-12.478,18.584-12.478,30.266c0,11.682,4.248,21.771,12.478,30c8.229,8.496,18.319,12.744,30,12.744
  		c11.682,0,21.505-4.248,29.735-13.01C738.813,232.165,743.062,222.076,743.062,210.395z"/>
  	<path fill="#FFFFFF" d="M995.271,262.696c0,9.026-4.248,13.54-13.01,13.54c-8.761,0-13.009-4.514-13.009-13.54v-55.752
  		c0-13.54-2.124-23.363-6.106-29.735s-10.885-9.558-20.442-9.558c-20.974,0-31.327,13.806-31.327,40.885v53.894
  		c0,9.292-4.514,13.806-13.01,13.806c-8.76,0-13.008-4.514-13.008-13.806v-55.487c0-13.54-2.125-23.363-6.106-29.735
  		c-4.248-6.372-11.151-9.558-20.708-9.558c-20.709,0-31.062,13.806-31.062,40.885v54.16c0,9.026-4.248,13.54-13.009,13.54
  		s-13.009-4.514-13.009-13.54V157.032c0-9.026,4.248-13.54,13.009-13.54c3.717,0.266,6.903,1.327,9.558,3.451
  		c2.39,2.124,3.451,5.044,3.451,8.761v3.717c10.089-10.885,22.035-16.46,35.576-16.46c19.911,0,33.717,7.965,40.885,23.628
  		c10.619-15.664,24.955-23.628,43.274-23.628c14.867,0,26.548,4.779,35.31,14.602c8.496,9.823,12.744,24.425,12.744,43.805V262.696z
  		"/>
  	<path fill="#FFFFFF" d="M1067.48,331.457c0,9.027-4.248,13.54-13.01,13.54c-8.761,0-13.009-4.513-13.009-13.54V157.032
  		c0-9.026,4.248-13.54,13.009-13.54c8.762,0,13.01,4.513,13.01,13.274v5.044c11.15-12.478,26.018-18.85,44.336-18.85
  		s34.248,6.637,47.522,19.381c13.274,13.009,19.911,28.938,19.911,48.053c0,19.115-6.637,35.044-19.911,48.053
  		s-29.204,19.381-47.522,19.381c-18.584,0-33.451-6.372-44.336-18.85V331.457z M1110.754,167.651
  		c-11.946,0.266-22.035,4.513-30,12.744c-8.23,8.23-12.212,18.318-12.212,30.266c0,11.947,3.981,22.036,11.946,30.265
  		c7.965,8.496,17.788,12.744,30,12.744c12.213,0,22.302-4.248,30.531-12.479c7.965-8.23,12.213-18.584,12.213-30.531
  		c0-11.947-3.982-22.036-12.213-30.266C1132.79,172.165,1122.701,167.917,1110.754,167.651z"/>
  	<path fill="#FFFFFF" d="M1336.947,210.661c0,18.583-6.637,34.513-20.177,47.522s-29.47,19.646-48.054,19.646
  		s-34.513-6.638-48.053-19.646c-13.274-13.009-19.912-28.938-19.912-47.522c0-18.584,6.638-34.514,19.912-47.788
  		s29.203-19.912,48.053-19.912c18.584,0,34.514,6.637,48.054,19.912S1336.947,192.076,1336.947,210.661z M1310.93,210.395
  		c0-11.682-4.248-21.77-12.479-30c-8.229-8.23-18.053-12.478-29.734-12.744c-11.682,0-21.77,4.513-29.734,13.009
  		c-8.23,8.496-12.478,18.584-12.478,30.266c0,11.682,4.247,21.771,12.478,30c8.23,8.496,18.318,12.744,30,12.744
  		s21.505-4.248,29.734-13.01C1306.682,232.165,1310.93,222.076,1310.93,210.395z"/>
  	<path fill="#FFFFFF" d="M1360.041,257.917c0-3.982,1.328-7.168,3.717-9.558c4.248-4.247,9.027-5.044,14.603-2.124
  		c9.558,5.576,18.318,8.23,26.549,8.23c7.964,0,13.805-1.327,17.787-3.982c3.717-2.654,5.575-6.106,5.575-10.088
  		c0-3.982-1.327-7.169-4.248-9.823c-2.92-2.39-5.84-3.982-8.229-4.779c-2.39-0.796-6.902-2.124-13.54-3.982
  		c-6.372-1.858-11.416-3.451-14.867-4.778c-3.451-1.328-7.699-3.186-12.213-6.106c-9.292-5.575-14.07-14.602-14.07-26.814
  		s3.982-22.301,12.212-29.735c8.23-7.434,19.381-11.416,33.452-11.416c14.07,0,25.221,2.92,33.451,8.761
  		c3.717,2.655,5.841,5.841,5.841,9.292c-0.266,3.452-1.593,6.372-3.982,8.761c-2.39,2.389-4.779,3.717-7.168,3.717
  		c-2.39,0-6.106-1.062-11.682-3.186c-5.575-2.124-11.15-3.186-17.257-3.451c-6.106,0-10.885,1.328-14.07,3.982
  		c-3.187,2.92-4.779,6.372-4.514,10.354c0,3.982,1.858,7.434,6.106,9.823c4.247,2.39,9.822,4.779,16.46,6.637
  		c6.637,1.858,11.416,3.452,14.336,4.514c2.921,1.062,6.372,2.655,10.886,4.779c4.247,2.389,7.434,5.044,9.822,7.434
  		c5.841,6.372,8.762,14.867,8.762,25.752c0.266,10.885-3.982,19.911-12.743,27.079c-8.762,7.169-20.443,10.62-35.576,10.62
  		s-28.407-3.451-39.823-10.886C1361.899,265.085,1360.041,261.899,1360.041,257.917z"/>
  	<path fill="#FFFFFF" d="M1601.368,219.156h-99.027c1.593,10.088,6.372,18.318,14.071,24.956
  		c7.699,6.637,16.991,10.088,28.142,10.088s21.239-3.982,30.531-11.682c5.31-4.513,10.619-3.981,16.194,1.594
  		s4.514,11.681-3.186,18.053c-12.743,10.619-27.876,15.664-45.398,15.664c-17.788,0.266-33.186-6.372-46.46-19.381
  		s-19.912-28.938-19.912-47.788c0-18.584,6.372-34.514,18.85-47.788s28.407-19.912,47.257-19.912s34.779,6.637,47.257,19.646
  		c12.478,13.274,18.85,28.938,18.85,47.522c-0.266,3.186-1.062,5.575-2.39,6.903
  		C1604.819,218.359,1603.227,219.156,1601.368,219.156z M1542.695,166.589c-9.823,0-18.318,3.186-25.487,9.027
  		c-7.168,5.841-11.681,13.54-14.07,22.832h78.85c-1.327-9.027-5.841-16.46-13.274-22.567
  		C1561.279,169.775,1552.519,166.589,1542.695,166.589z"/>
  	<path fill="#FFFFFF" d="M1718.71,155.439c0,3.982-1.062,6.903-3.451,9.027c-2.39,2.389-5.575,3.451-9.292,3.717
  		c-13.54,1.062-23.629,4.779-30.001,10.885c-6.371,6.106-9.557,15.664-9.557,28.673v54.956c0,9.026-4.248,13.54-13.01,13.54
  		c-8.761,0-13.009-4.514-13.009-13.54V157.032c0-9.026,4.248-13.54,13.009-13.54c8.762,0,13.01,4.248,13.01,12.743v4.514
  		c11.15-11.947,23.894-17.788,37.964-17.522c3.982,0,7.169,1.062,10.089,3.186C1717.383,148.536,1718.71,151.457,1718.71,155.439z"
  		/>
  </g>

</svg>
