<?xml version="1.0" encoding="utf-8"?>
<!-- Generator: Adobe Illustrator 16.0.0, SVG Export Plug-In . SVG Version: 6.00 Build 0)  -->
<!DOCTYPE svg PUBLIC "-//W3C//DTD SVG 1.1//EN" "http://www.w3.org/Graphics/SVG/1.1/DTD/svg11.dtd">
<svg version="1.1" id="Layer_1" xmlns="http://www.w3.org/2000/svg" xmlns:xlink="http://www.w3.org/1999/xlink" x="0px" y="0px"
	 width="1837.5px" height="434px" viewBox="0 0 1837.5 434" enable-background="new 0 0 1837.5 434" xml:space="preserve">
<g>
	<g>
		<path fill="#FFFFFF" d="M363.731,364.759l31.675-31.664L276.391,214.08L395.422,95.05l-31.663-31.664
			c-40.246-40.245-93.758-62.41-150.674-62.411c-56.917,0-110.429,22.164-150.674,62.408C22.164,103.632,0,157.142,0,214.059
			c0,56.917,22.165,110.427,62.411,150.673c40.243,40.243,93.747,62.406,150.657,62.411h0.018
			C269.985,427.146,323.485,404.989,363.731,364.759z"/>
		<path fill="#FF504D" d="M332.115,95.05c-0.008-0.006-0.016-0.015-0.021-0.021c-65.729-65.726-172.293-65.726-238.02,0
			l119.03,119.03L332.115,95.05z"/>
		<path fill="#0E2F3A" d="M94.087,95.039c-0.007,0.006-0.016,0.013-0.023,0.021c-65.726,65.725-65.727,172.293-0.001,238.018
			l119.032-119.032L94.087,95.039z"/>
		<path fill="#2BAAE1" d="M94.087,333.078c0.008,0.008,0.013,0.016,0.019,0.021c65.729,65.729,172.292,65.728,238.019,0
			L213.096,214.071L94.087,333.078z"/>
	</g>
	<g>
		<path fill="#FFFFFF" d="M607.093,260.547c-14.045,14.045-30.74,20.14-48.76,20.14c-37.365,0-68.37-24.114-68.37-67.84
			c0-43.725,30.475-67.84,68.37-67.84c17.755,0,33.655,6.095,47.435,19.61l-13.78,14.31c-9.275-9.01-21.465-13.25-33.125-13.25
			c-25.97,0-46.905,17.755-46.905,47.169c0,30.476,21.2,47.17,46.64,47.17c12.455,0,24.91-4.239,34.185-13.78l14.575,14.576
			L607.093,260.547z"/>
		<path fill="#FFFFFF" d="M691.365,144.477c40.015,0,68.105,28.09,68.105,68.635c0,39.75-28.62,67.575-68.105,67.575
			c-39.22,0-67.84-27.825-67.84-67.575C623.525,172.567,652.41,144.477,691.365,144.477z M691.63,164.352
			c-26.765,0-46.375,19.61-46.375,48.76c0,27.56,19.345,47.169,46.11,47.169c27.03,0,46.375-19.609,46.64-47.169
			C738.005,183.962,717.865,164.352,691.63,164.352z"/>
		<path fill="#FFFFFF" d="M791.005,147.657h20.14l1.325,19.08c7.95-15.37,23.85-21.465,38.69-21.465
			c18.02,0,36.57,7.685,43.99,28.62c9.54-20.14,27.56-28.62,46.11-28.62c34.449,0,55.119,22.525,55.119,58.3v74.73h-21.729v-74.73
			c0-21.465-12.455-37.895-33.92-37.895c-21.466,0-35.775,16.96-35.775,38.425v74.2h-21.73v-74.2
			c0-21.465-13.515-38.425-35.245-38.425c-21.465,0-35.51,16.96-35.51,38.425v74.2h-21.73v-130.91L791.005,147.657z"/>
		<path fill="#FFFFFF" d="M1034.539,147.922h20.67l1.061,25.175c10.335-17.49,29.68-27.56,50.35-27.56
			c37.63,0.795,65.189,27.295,65.189,67.575c0,41.339-27.295,68.105-66.514,68.105c-18.551,0-39.221-7.95-49.556-26.5v85.33h-21.2
			V147.922z M1150.079,213.642c0-29.415-19.345-46.905-46.11-46.905c-27.295,0-45.844,20.14-45.844,46.905
			c0,26.764,19.344,46.905,45.844,47.17C1130.204,260.812,1150.079,243.057,1150.079,213.642z"/>
		<path fill="#FFFFFF" d="M1262.702,144.477c40.015,0,68.104,28.09,68.104,68.635c0,39.75-28.619,67.575-68.104,67.575
			c-39.22,0-67.84-27.825-67.84-67.575C1194.862,172.567,1223.747,144.477,1262.702,144.477z M1262.967,164.352
			c-26.765,0-46.375,19.61-46.375,48.76c0,27.56,19.346,47.169,46.11,47.169c27.03,0,46.375-19.609,46.64-47.169
			C1309.342,183.962,1289.202,164.352,1262.967,164.352z"/>
		<path fill="#FFFFFF" d="M1446.082,176.542c-11.395-10.335-23.32-12.72-36.834-12.72c-18.021-0.265-32.596,6.095-32.33,19.08
			c0.264,13.515,16.164,17.49,32.594,19.345c23.852,2.915,55.65,7.685,55.121,40.015c-0.531,26.234-25.439,39.221-54.855,39.221
			c-21.994,0-43.725-6.096-58.564-24.646l12.455-15.104c11.66,14.31,30.475,20.139,46.639,20.139
			c14.311,0,32.596-4.504,33.125-20.404c0.266-14.311-15.104-18.55-35.244-20.936c-25.176-3.179-52.205-9.804-52.205-37.629
			c-0.266-27.825,27.824-38.69,53-38.425c19.609,0,35.775,4.77,49.82,17.49l-12.455,14.31L1446.082,176.542z"/>
		<path fill="#FFFFFF" d="M1611.441,257.367c-13.25,15.635-36.041,23.319-56.445,23.319c-40.545,0-68.9-26.765-68.9-68.37
			c0-39.485,28.355-67.84,67.84-67.84c40.016,0,70.49,24.645,65.455,76.849h-111.299c2.385,24.115,22.26,39.221,47.434,39.221
			c14.84,0,32.861-5.83,41.605-16.43l14.574,13.25H1611.441z M1598.721,203.307c-1.061-25.44-18.551-39.22-44.254-39.22
			c-22.791,0-42.666,13.78-46.375,38.955h90.629V203.307z"/>
		<path fill="#FFFFFF" d="M1670.006,147.127l1.59,19.61c9.01-16.96,25.176-21.73,40.279-21.73
			c11.396-0.265,22.525,3.71,30.477,9.805l-9.807,18.55c-6.889-4.77-13.779-7.155-22.789-7.155
			c-20.936,0.265-38.426,15.105-38.426,39.22v72.875h-21.729v-130.91h20.139L1670.006,147.127z"/>
	</g>
</g>
<g>
	<path fill="#FFFFFF" d="M144.012,1237.826l20.145-20.138l-75.691-75.691l75.702-75.701l-20.137-20.138
		c-25.596-25.595-59.628-39.691-95.826-39.692c-36.198,0-70.23,14.096-95.826,39.69c-25.596,25.598-39.692,59.629-39.692,95.827
		c0,36.198,14.096,70.229,39.692,95.825c25.594,25.594,59.621,39.689,95.815,39.692h0.011
		C84.391,1277.503,118.416,1263.412,144.012,1237.826z"/>
	<path fill="#FF504D" d="M123.904,1066.296c-0.005-0.004-0.01-0.01-0.014-0.014c-41.802-41.801-109.575-41.801-151.376,0
		l75.701,75.701L123.904,1066.296z"/>
	<path fill="#0E2F3A" d="M-27.477,1066.289c-0.005,0.004-0.01,0.008-0.015,0.014c-41.801,41.8-41.801,109.575,0,151.375
		l75.702-75.702L-27.477,1066.289z"/>
	<path fill="#2BAAE1" d="M-27.478,1217.678c0.005,0.005,0.008,0.01,0.012,0.013c41.802,41.803,109.575,41.802,151.376,0
		l-75.701-75.699L-27.478,1217.678z"/>
</g>
<rect x="212.532" y="1005.846" fill="none" width="1393.178" height="219.076"/>
<text transform="matrix(1 0 0 1 212.5312 1206.8555)" fill="#FFFFFF" font-family="'NexaRegular'" font-size="286.7519">composer</text>
</svg>
