<svg xmlns="http://www.w3.org/2000/svg" x="0px" y="0px" width="398" height="434" viewBox="0 0 398 434">
  <path fill="#FFFFFF" d="M365.518,365.573l31.832-31.82l-119.6-119.599L397.365,94.538l-31.819-31.82
  	C325.102,22.275,271.328,0.001,214.132,0C156.935,0,103.161,22.273,62.717,62.717C22.272,103.162-0.001,156.935,0,214.132
  	c0,57.197,22.273,110.97,62.717,151.414c40.44,40.439,94.207,62.713,151.396,62.718l0.019,5l0,0v-5
  	C271.312,428.266,325.075,406.001,365.518,365.573z"/>
  <path fill="#FF504D" d="M333.746,94.538c-0.007-0.007-0.014-0.015-0.021-0.022c-66.051-66.05-173.139-66.051-239.188,0
  	l119.616,119.616L333.746,94.538z"/>
  <path fill="#0E2F3A" d="M94.549,94.527c-0.007,0.007-0.016,0.014-0.022,0.021c-66.05,66.05-66.051,173.139-0.001,239.188
  	l119.616-119.616L94.549,94.527z"/>
  <path fill="#2BAAE1" d="M94.548,333.736c0.008,0.008,0.014,0.015,0.021,0.021c66.051,66.052,173.139,66.051,239.188,0.001
  	L214.142,214.143L94.548,333.736z"/>
</svg>